<svg width="52" height="52" viewBox="0 0 52 52" fill="none" xmlns="http://www.w3.org/2000/svg">
<g clip-path="url(#clip0_6_823)">
<path d="M51.1998 32.2716C51.1634 33.1187 51.0197 33.9537 50.7751 34.7569C50.5304 35.5602 50.1836 36.3343 49.7418 37.0561L46.5067 42.3444C45.2945 44.3259 43.1171 45.5113 40.7961 45.4529L37.8178 45.3787C35.7938 45.3276 33.9961 44.0776 33.2439 42.1984L32.0549 39.2237C31.781 38.5397 30.8864 38.3778 30.3911 38.9219L29.6863 39.6936C29.2592 40.1609 28.4997 40.077 28.1856 39.5268L27.1365 37.6914C26.0691 35.8231 23.8284 34.9711 21.7886 35.6588L15.8296 37.6694C15.1821 37.8885 14.5443 38.1417 13.9224 38.4277L8.71193 40.8266C7.57636 41.3487 6.27403 41.3743 5.11785 40.896C4.45089 40.6197 4.06018 39.9782 4.06018 39.3113C4.06018 39.0131 4.13808 38.71 4.30484 38.4326L4.4582 38.1757C4.90487 37.4321 4.97058 36.518 4.6335 35.7172L1.13671 27.4043C0.228748 25.2452 1.19999 22.755 3.32995 21.78L9.94977 18.7482L10.0763 18.59L11.6111 16.6779L12.9974 14.952L13.9943 13.7105L15.8175 11.4394L15.921 11.3104C16.6184 10.4414 17.8331 10.1858 18.8214 10.7006C19.178 10.8857 19.5663 10.9769 19.9521 10.9769C20.3768 10.9769 20.798 10.8673 21.1729 10.6519C21.2933 10.5825 21.4102 10.5034 21.5197 10.4121L25.3438 7.23786C25.8611 6.80947 26.5683 6.69014 27.1962 6.92627L29.325 7.72465C29.8776 7.93153 30.2718 8.37089 30.4435 8.88703C30.5883 9.32151 30.5761 9.81084 30.368 10.2624C30.2694 10.4766 30.2134 10.7017 30.2 10.9269C30.1964 10.967 30.1952 11.0072 30.1952 11.0474C30.1952 11.651 30.4885 12.2377 31.0155 12.5956L31.3708 12.8378L31.8455 13.1591L33.7844 14.4761C35.0843 15.3585 36.8673 14.7597 37.37 13.2712L39.6411 6.54541L40.5625 11.2557C40.6793 11.8532 41.2538 12.2476 41.8551 12.1417C41.9208 12.1295 41.9865 12.1246 42.051 12.1246C42.567 12.1246 43.0283 12.4836 43.1416 13.0046L44.422 18.8746L49.4522 26.1907C50.6789 27.9752 51.2923 30.1088 51.1998 32.2716Z" fill="#2C8CF4"/>
<path d="M47.8343 27.6819H47.5769V27.4245C47.5769 26.9876 47.2227 26.6333 46.7857 26.6333C46.3487 26.6333 45.9945 26.9874 45.9945 27.4245V27.6819H45.7373C45.3004 27.6819 44.9461 28.0361 44.9461 28.4731C44.9461 28.9101 45.3003 29.2643 45.7373 29.2643H45.9945V29.5217C45.9945 29.9586 46.3487 30.3129 46.7857 30.3129C47.2227 30.3129 47.5769 29.9587 47.5769 29.5217V29.2643H47.8343C48.2712 29.2643 48.6255 28.9101 48.6255 28.4731C48.6255 28.0361 48.2712 27.6819 47.8343 27.6819Z" fill="white"/>
<path d="M37.0321 27.6819H36.7746V27.4245C36.7746 26.9876 36.4205 26.6333 35.9835 26.6333C35.5465 26.6333 35.1923 26.9874 35.1923 27.4245V27.6819H34.9348C34.4979 27.6819 34.1437 28.0361 34.1437 28.4731C34.1437 28.9101 34.4978 29.2643 34.9348 29.2643H35.1923V29.5217C35.1923 29.9586 35.5465 30.3129 35.9835 30.3129C36.4205 30.3129 36.7746 29.9587 36.7746 29.5217V29.2643H37.0321C37.469 29.2643 37.8233 28.9101 37.8233 28.4731C37.8233 28.0361 37.469 27.6819 37.0321 27.6819Z" fill="white"/>
<path d="M39.6348 22.6449C40.0718 22.6449 40.426 22.2908 40.426 21.8538V21.5963H40.6835C41.1204 21.5963 41.4746 21.2422 41.4746 20.8051C41.4746 20.3681 41.1205 20.014 40.6835 20.014H40.426V19.7565C40.426 19.3196 40.0719 18.9653 39.6348 18.9653C39.1978 18.9653 38.8437 19.3195 38.8437 19.7565V20.014H38.5862C38.1493 20.014 37.795 20.3681 37.795 20.8051C37.795 21.2422 38.1492 21.5963 38.5862 21.5963H38.8437V21.8538C38.8438 22.2908 39.1979 22.6449 39.6348 22.6449Z" fill="white"/>
<path d="M41.9005 36.0799H41.643V35.8224C41.643 35.3855 41.2888 35.0312 40.8518 35.0312C40.4148 35.0312 40.0607 35.3854 40.0607 35.8224V36.0799H39.8032C39.3663 36.0799 39.012 36.434 39.012 36.871C39.012 37.3081 39.3662 37.6622 39.8032 37.6622H40.0607V37.9197C40.0607 38.3566 40.4148 38.7108 40.8518 38.7108C41.2888 38.7108 41.643 38.3567 41.643 37.9197V37.6622H41.9005C42.3374 37.6622 42.6916 37.3081 42.6916 36.871C42.6916 36.434 42.3375 36.0799 41.9005 36.0799Z" fill="white"/>
<path d="M18.8972 32.3069H18.6397V32.0495C18.6397 31.6126 18.2855 31.2583 17.8485 31.2583C17.4116 31.2583 17.0574 31.6124 17.0574 32.0495V32.3069H16.7999C16.363 32.3069 16.0087 32.6611 16.0087 33.0981C16.0087 33.5351 16.3629 33.8893 16.7999 33.8893H17.0574V34.1467C17.0574 34.5836 17.4115 34.9379 17.8485 34.9379C18.2854 34.9379 18.6397 34.5837 18.6397 34.1467V33.8893H18.8972C19.3341 33.8893 19.6883 33.5351 19.6883 33.0981C19.6883 32.6611 19.3341 32.3069 18.8972 32.3069Z" fill="white"/>
<path d="M40.9581 46.2456C40.8974 46.2456 40.8368 46.2449 40.7761 46.2433L37.798 46.169C35.4555 46.1099 33.3797 44.6665 32.5094 42.4918L31.3202 39.5169C31.2851 39.4292 31.2163 39.3995 31.1648 39.3903C31.1134 39.381 31.0393 39.3847 30.9759 39.4541L30.2705 40.2265C29.8995 40.6325 29.3521 40.8386 28.8056 40.7774C28.2595 40.7166 27.7707 40.3954 27.4984 39.9185L26.4496 38.0835C25.5719 36.5474 23.7179 35.8428 22.0412 36.408L16.0825 38.4186C15.4604 38.6291 14.8446 38.8738 14.2529 39.1461C13.8562 39.3287 13.3861 39.1549 13.2037 38.758C13.0211 38.361 13.1949 37.8912 13.5919 37.7087C14.2335 37.4136 14.9012 37.1481 15.5761 36.9198L21.5356 34.9089C23.9269 34.1027 26.5717 35.1076 27.8234 37.2985L28.8725 39.1338C28.9023 39.1861 28.9477 39.2014 28.9806 39.205C29.0137 39.2087 29.0618 39.2038 29.1023 39.1594L29.8067 38.3881C30.2232 37.9308 30.8369 37.7231 31.4463 37.8334C32.0567 37.9438 32.5586 38.3535 32.7891 38.9295L33.9786 41.9043C34.6137 43.4909 36.1287 44.5443 37.838 44.5875L40.816 44.6618C42.8477 44.7139 44.7704 43.6666 45.832 41.9313L49.0671 36.6429C49.472 35.9813 49.7921 35.2692 50.0185 34.5262C50.2445 33.7838 50.3761 33.0138 50.4095 32.2374C50.4765 30.6732 50.1391 29.1071 49.4338 27.7085C49.2371 27.3184 49.3939 26.8427 49.784 26.6459C50.1738 26.4493 50.6498 26.6058 50.8466 26.996C51.6734 28.6355 52.0688 30.4714 51.9903 32.3052C51.951 33.215 51.7969 34.1173 51.5319 34.9873C51.2664 35.8585 50.8913 36.6934 50.4165 37.4689L47.1816 42.7571C45.8576 44.9207 43.4855 46.2455 40.9581 46.2456Z" fill="black"/>
<path d="M16.6084 16.3247V17.7986H11.8945L11.113 17.2984L11.6109 16.6776H11.6121L12.9972 14.9518L13.4962 14.3311L16.6071 16.3247H16.6084Z" fill="#F95428"/>
<path d="M31.8454 26.0881V27.9186H27.6889L20.3813 23.2363V21.5713H24.7958L31.8454 26.0881Z" fill="#F95428"/>
<path d="M31.8454 12.5332V13.4728L25.094 17.7984H20.3813V16.3246L29.2212 10.6602H30.2363C30.2351 10.6626 30.2351 10.665 30.2351 10.6663C30.229 10.6967 30.2229 10.7271 30.218 10.7576C30.2132 10.7856 30.2095 10.8147 30.2071 10.8428C30.2034 10.8708 30.201 10.8987 30.1998 10.9268C30.1961 10.9669 30.1949 11.0071 30.1949 11.0472C30.1949 11.6509 30.4882 12.2375 31.0152 12.5954L31.3706 12.8376H31.3718L31.8454 12.5332Z" fill="#F95428"/>
<path d="M4.35199 21.3111V21.5716H12.1926H16.6083V23.2366V27.9188H17.3995H19.5903H20.3814V23.2366V21.5716H24.7959H31.8455V20.7804V18.5896V17.7984H25.0941H20.3814V16.3246V10.9388V10.6602H18.7396C18.7384 10.6602 18.7384 10.6602 18.7384 10.6602H16.7459H16.7447H16.6084V10.7307V16.3246V17.7984H11.8945H10.7115L10.546 18.0041C10.1455 18.497 9.63555 18.8914 9.05868 19.1567L5.51193 20.7804L4.35199 21.3111Z" fill="#F95428"/>
<path d="M16.6083 21.5713V23.2363H16.6071L9.29962 27.9186H2.35724L12.1927 21.5713H16.6083Z" fill="#F95428"/>
<path d="M31.8454 22.3631H27.4967L31.8454 25.1503V27.0283L24.5646 22.3631H21.1725V22.8049L29.1543 27.9192H26.2223L21.1725 24.6841V27.9192H19.5903V21.5719C19.5903 21.135 19.9444 20.7808 20.3814 20.7808H31.8454V22.3631Z" fill="white"/>
<path d="M17.3995 21.5718V27.9191H15.8173V24.6828L10.7663 27.9191H7.83417L15.8172 22.8036V22.363H12.4239L3.8116 27.9192H1.54535L1.35431 27.6222L9.49187 22.3631H3.24326L4.35202 21.5719V21.3114L5.51196 20.7808H16.6083C17.0452 20.7808 17.3995 21.1349 17.3995 21.5718Z" fill="white"/>
<path d="M31.8454 12.5336V14.4116L27.7949 17.0077H31.8454V18.5899H20.3814C19.9445 18.5899 19.5902 18.2358 19.5902 17.7988V11.4515L17.3994 10.843V17.7988C17.3994 18.2357 17.0453 18.5899 16.6082 18.5899H10.0762L10.546 18.0045L10.7115 17.7989L11.1132 17.2987L11.611 16.6779H11.6122L12.1258 17.0078H15.8173V16.7583L12.9972 14.9521L13.4962 14.3313L13.9939 13.7106L15.8173 14.879V11.4395L15.9208 11.3105C15.9451 11.28 15.9706 11.2496 15.9962 11.2216C16.0121 11.2033 16.0291 11.185 16.0461 11.1681C16.0862 11.1243 16.1276 11.0829 16.1726 11.0428C16.1885 11.0281 16.2043 11.0147 16.2201 11.0014C16.2469 10.9783 16.2736 10.9564 16.3016 10.9345C16.3357 10.9065 16.371 10.881 16.4063 10.8566C16.472 10.8104 16.539 10.7689 16.6083 10.7313C16.6181 10.7252 16.6291 10.7191 16.6412 10.713C16.6717 10.6959 16.7021 10.6813 16.7326 10.6668C16.7362 10.6643 16.7399 10.6631 16.7447 10.6607H16.746C16.8239 10.623 16.903 10.5913 16.9845 10.5633C17.0576 10.5377 17.1318 10.5171 17.206 10.5C17.4227 10.4477 17.6466 10.4282 17.8706 10.4404C17.9143 10.4428 17.957 10.4465 17.9995 10.4514C18.0288 10.4538 18.0592 10.4587 18.0884 10.4636C18.1055 10.4648 18.1237 10.4672 18.1407 10.4709C18.1784 10.4782 18.2162 10.4855 18.2551 10.494C18.2916 10.5026 18.3269 10.5111 18.3634 10.5208C18.372 10.5233 18.3817 10.5257 18.3915 10.5294C18.4292 10.5403 18.4657 10.5513 18.5023 10.5647C18.5047 10.5647 18.5059 10.5647 18.5084 10.5671C18.5437 10.5793 18.579 10.5927 18.6143 10.606C18.6228 10.6097 18.6326 10.6134 18.6411 10.617C18.674 10.6304 18.7068 10.645 18.7385 10.6608C18.7385 10.6608 18.7385 10.6608 18.7397 10.6608C18.7665 10.673 18.7945 10.6864 18.8213 10.7009C19.1779 10.8859 19.5661 10.9772 19.952 10.9772C19.9909 10.9772 20.0286 10.9759 20.0663 10.9747C20.1005 10.9735 20.1345 10.9711 20.1686 10.9674C20.1905 10.9662 20.2124 10.9637 20.2331 10.9613C20.2636 10.9577 20.2939 10.954 20.3244 10.9491C20.3439 10.9455 20.3633 10.943 20.3816 10.9394C20.3962 10.9369 20.4108 10.9345 20.4254 10.9308C20.4497 10.9272 20.4728 10.9223 20.4959 10.9162C20.6019 10.8918 20.7065 10.8615 20.8087 10.8225C20.8246 10.8176 20.8404 10.8115 20.855 10.8054C20.8963 10.7883 20.9377 10.7713 20.9791 10.7519C21.0204 10.7336 21.0618 10.713 21.102 10.6911C21.1117 10.6862 21.1215 10.6813 21.1312 10.6752C21.1446 10.6679 21.1592 10.6606 21.1725 10.6521V14.8778L30.4432 8.88721C30.4505 8.91036 30.4591 8.93464 30.4652 8.95901C30.4798 9.00644 30.492 9.05519 30.5017 9.10506C30.5115 9.15371 30.52 9.20367 30.5261 9.25354C30.5395 9.36313 30.5432 9.47261 30.5371 9.58342C30.5346 9.61998 30.5322 9.65522 30.5273 9.69178C30.5249 9.71616 30.5212 9.73921 30.5176 9.76359C30.5176 9.77334 30.5151 9.78309 30.5139 9.79284C30.5042 9.84636 30.4932 9.89998 30.4786 9.95351C30.4518 10.0582 30.4141 10.1616 30.3678 10.2627C30.3531 10.2956 30.3385 10.3272 30.3264 10.3601C30.3167 10.3844 30.3082 10.4087 30.2996 10.4331C30.2923 10.4514 30.2862 10.4708 30.2813 10.489C30.2728 10.5146 30.2655 10.5401 30.2594 10.5669C30.2497 10.5986 30.2423 10.629 30.2362 10.6607C30.235 10.6631 30.235 10.6656 30.235 10.6668C30.2277 10.6972 30.2228 10.7276 30.218 10.7581C30.2131 10.7861 30.2094 10.8153 30.207 10.8433C30.2033 10.8713 30.2009 10.8993 30.1997 10.9273L21.1723 16.7573V17.008H24.8626L31.3705 12.8382H31.3717L31.8454 12.5336Z" fill="white"/>
<path d="M6.83454 42.0269C6.14758 42.0269 5.4603 41.8938 4.81508 41.6269C3.87563 41.2377 3.2687 40.3288 3.2687 39.3112C3.2687 38.8592 3.3924 38.4143 3.6264 38.0249L3.77854 37.7701C4.09572 37.2421 4.14223 36.59 3.90387 36.024L0.407285 27.7114C-0.673234 25.142 0.465785 22.2207 3.00037 21.0607L4.02229 20.5922C4.03102 20.5881 4.03996 20.5843 4.04879 20.5806L8.72918 18.4378C9.19383 18.2241 9.61023 17.9015 9.93178 17.5057L10.9936 16.183C11.0016 16.1729 11.01 16.163 11.0184 16.1535L15.3034 10.8156C15.3357 10.7752 15.3704 10.7339 15.4054 10.6953C15.4274 10.6702 15.4506 10.6452 15.4739 10.6215C15.5291 10.5621 15.5839 10.508 15.6412 10.4567C15.6627 10.437 15.6843 10.4185 15.7058 10.4002C15.7394 10.3712 15.7759 10.3405 15.8135 10.3117C15.8566 10.2769 15.9026 10.2429 15.9572 10.2053C16.0363 10.1496 16.1222 10.096 16.2141 10.0452C16.2317 10.0349 16.2502 10.0246 16.2699 10.0143C16.3062 9.99449 16.3424 9.97662 16.3788 9.95895C16.3879 9.95428 16.3968 9.94991 16.4057 9.94585C16.4138 9.94199 16.422 9.93833 16.4302 9.93467C16.524 9.8906 16.6216 9.85139 16.7274 9.81503C16.8358 9.77827 16.9342 9.75024 17.0315 9.7284C17.3096 9.66117 17.6105 9.63405 17.9132 9.6505C17.9702 9.65365 18.0248 9.65832 18.0791 9.66421C18.1152 9.66767 18.1525 9.67275 18.1889 9.67843C18.225 9.68229 18.2609 9.68788 18.296 9.69509C18.3383 9.70321 18.3806 9.71154 18.4242 9.72109C18.479 9.73378 18.5225 9.74435 18.5673 9.75643C18.572 9.75765 18.5765 9.75897 18.5812 9.76019C18.5961 9.76436 18.6118 9.76893 18.6278 9.77421C18.6774 9.78883 18.7254 9.80386 18.7738 9.82153C18.7762 9.82235 18.7786 9.82336 18.7809 9.82417C18.8189 9.83758 18.857 9.8518 18.8949 9.86632C18.9055 9.87039 18.9163 9.87475 18.9267 9.87922L18.939 9.8843C18.9795 9.90075 19.0201 9.91843 19.0597 9.93742C19.0621 9.93853 19.0646 9.93965 19.067 9.94057C19.1076 9.95905 19.15 9.97946 19.191 10.0015C19.4259 10.1223 19.6888 10.1861 19.9518 10.1861C19.9821 10.1861 20.0114 10.185 20.0407 10.1841C20.0534 10.1836 20.0687 10.1825 20.0841 10.181C20.0975 10.1795 20.111 10.1784 20.1246 10.1777L20.1403 10.1759C20.1582 10.1737 20.1758 10.1717 20.1934 10.1692C20.2047 10.1673 20.2161 10.1654 20.2272 10.1636C20.2357 10.1619 20.243 10.1608 20.2514 10.1593C20.2504 10.1595 20.2447 10.161 20.2381 10.1625C20.2587 10.1575 20.2796 10.1532 20.3006 10.15C20.3067 10.1484 20.3126 10.1469 20.3187 10.1456C20.3961 10.1278 20.4642 10.1075 20.5268 10.0837C20.5372 10.0798 20.5478 10.0759 20.5582 10.0725C20.5878 10.0603 20.6149 10.0493 20.6421 10.0365C20.648 10.0339 20.6538 10.0312 20.6598 10.0285C20.6812 10.0192 20.7025 10.0082 20.7234 9.99683C20.729 9.99378 20.7346 9.99074 20.7404 9.98779C20.7442 9.98576 20.7479 9.98353 20.7517 9.98149C20.7535 9.98038 20.7624 9.9756 20.767 9.97327C20.7717 9.97063 20.7762 9.96789 20.7807 9.96524C20.8595 9.92035 20.9379 9.86592 21.0202 9.79899L24.8382 6.62984C25.5731 6.02118 26.5829 5.85137 27.4742 6.18642L29.6023 6.9846C30.3583 7.26755 30.9386 7.87032 31.1938 8.63793C31.1952 8.6423 31.1967 8.64666 31.1981 8.65103L31.2017 8.66261C31.2103 8.68902 31.2187 8.71593 31.2261 8.74305C31.2455 8.80805 31.2622 8.87508 31.2758 8.94302C31.2924 9.01899 31.3046 9.09394 31.3121 9.16646C31.3312 9.32683 31.336 9.48465 31.3261 9.63527C31.3229 9.68504 31.3189 9.73358 31.3128 9.78335C31.3102 9.80782 31.3068 9.83179 31.3034 9.85617C31.3011 9.8777 31.2983 9.89618 31.2957 9.91142C31.2946 9.91863 31.2933 9.92574 31.2921 9.93295C31.2772 10.0165 31.2614 10.0875 31.2432 10.1556C31.2057 10.3005 31.1531 10.4474 31.0869 10.592L31.0828 10.6012C31.0773 10.6133 31.0718 10.625 31.0671 10.6369C31.0666 10.6381 31.0621 10.6498 31.0616 10.651C31.0557 10.6657 31.0507 10.6804 31.0456 10.6952C31.0444 10.6986 31.0432 10.7019 31.0421 10.7052C31.0386 10.717 31.0351 10.7286 31.0312 10.7402C31.0267 10.7598 31.021 10.7806 31.0151 10.7997C31.0133 10.8085 31.0115 10.8177 31.0094 10.8267C31.0057 10.8455 31.0019 10.8642 30.9988 10.883C30.9962 10.8989 30.9956 10.9046 30.9951 10.91C30.9939 10.9222 30.9926 10.9341 30.9912 10.9462C30.9906 10.951 30.9902 10.9557 30.99 10.9605C30.9894 10.9734 30.9886 10.9862 30.9874 10.9991C30.986 11.0152 30.9858 11.0312 30.9858 11.0474C30.9858 11.4057 31.1627 11.7396 31.4594 11.9411L31.7889 12.1656C31.798 12.1713 31.807 12.1772 31.816 12.1833L34.2285 13.8218C34.6417 14.1023 35.1506 14.1719 35.6241 14.0127C36.0972 13.8537 36.4602 13.4911 36.62 13.0181L38.8911 6.29235C39.0059 5.95253 39.3339 5.73264 39.693 5.75611C40.0508 5.77987 40.3482 6.04149 40.417 6.39361L41.3383 11.1039C41.3723 11.2774 41.5425 11.3935 41.7174 11.3626C41.8188 11.3437 41.9332 11.3336 42.0504 11.3336C42.941 11.3336 43.7248 11.9657 43.9141 12.8367L44.6042 15.9979C44.9735 17.694 45.6596 19.2791 46.6434 20.7097L49.0279 24.1772C49.2753 24.5373 49.1842 25.0299 48.8242 25.2774C48.4642 25.525 47.9716 25.4338 47.7241 25.0737L45.3398 21.6062C44.2392 20.0057 43.4715 18.2321 43.0583 16.3349L42.3682 13.1732C42.3357 13.0236 42.2023 12.9156 42.0506 12.9156C42.0248 12.9156 42.0082 12.9177 41.9989 12.9194C40.9739 13.1 39.9838 12.4211 39.7857 11.4072L39.4365 9.62247L38.1191 13.5241C37.7999 14.4695 37.0744 15.1942 36.1285 15.5123C35.1821 15.8306 34.1657 15.6912 33.3397 15.1306L30.9545 13.5108C30.9446 13.5046 30.9347 13.4981 30.925 13.4916L30.5696 13.2494C29.84 12.754 29.4038 11.9305 29.4038 11.0475C29.4038 10.9853 29.406 10.9284 29.4104 10.874C29.4124 10.8354 29.4158 10.7967 29.4203 10.758C29.4247 10.713 29.4308 10.6666 29.4386 10.6219C29.4433 10.5924 29.4511 10.5521 29.459 10.5118H29.4591C29.4597 10.5086 29.4603 10.5055 29.4611 10.5024C29.4705 10.4539 29.4818 10.4075 29.4947 10.3624C29.5033 10.3275 29.513 10.2936 29.5237 10.2598C29.5337 10.2252 29.5447 10.1916 29.5568 10.1595C29.5667 10.1315 29.5768 10.1036 29.5879 10.0755C29.6032 10.0349 29.6206 9.9951 29.6387 9.95478L29.6449 9.94087C29.6763 9.87211 29.6977 9.8129 29.7118 9.75745C29.7129 9.75328 29.714 9.74902 29.7151 9.74496C29.7218 9.72048 29.7269 9.6959 29.7315 9.67132C29.7326 9.66259 29.7339 9.65396 29.7351 9.64512L29.7398 9.61262C29.7409 9.60338 29.7417 9.59617 29.7429 9.58693C29.7453 9.56844 29.746 9.55036 29.7473 9.53178C29.7509 9.47653 29.7486 9.41539 29.7406 9.34978C29.7397 9.34328 29.7389 9.33678 29.7383 9.33018C29.7372 9.32012 29.7351 9.30296 29.7295 9.27808C29.7278 9.27086 29.7263 9.26376 29.7248 9.25644C29.7205 9.2343 29.7152 9.21267 29.7088 9.19144C29.7056 9.18108 29.7026 9.17062 29.6997 9.16006L29.6915 9.13386C29.5874 8.82328 29.3527 8.57984 29.0471 8.46538L26.918 7.66669C26.5559 7.5306 26.1462 7.59976 25.848 7.84686L22.0245 11.0205C21.8713 11.145 21.7261 11.2456 21.575 11.3326C21.5565 11.3437 21.5374 11.3544 21.5186 11.3645C21.502 11.3739 21.4855 11.3828 21.4688 11.3914C21.4142 11.4208 21.3598 11.4476 21.307 11.4712C21.2566 11.4947 21.2062 11.5158 21.1557 11.5364C21.1301 11.5471 21.101 11.5582 21.0709 11.5683C20.9484 11.6139 20.8214 11.6519 20.6837 11.6841C20.647 11.6933 20.6108 11.7011 20.5741 11.7074C20.5563 11.7111 20.5386 11.7143 20.521 11.7174C20.5058 11.7202 20.4904 11.7228 20.4747 11.7253C20.4678 11.7265 20.4559 11.7286 20.449 11.7297C20.409 11.7362 20.3691 11.7412 20.3292 11.7458C20.2969 11.7496 20.2658 11.7529 20.2348 11.7552C20.188 11.7598 20.1411 11.763 20.0944 11.7646C20.0454 11.7662 19.9993 11.7676 19.9516 11.7676C19.434 11.7676 18.9171 11.6412 18.4566 11.4025C18.4517 11.3999 18.4468 11.3974 18.4421 11.3947C18.4385 11.3928 18.4349 11.391 18.4314 11.3892C18.4157 11.3826 18.4002 11.3755 18.3849 11.3679C18.3712 11.3611 18.3569 11.3549 18.3425 11.349C18.3377 11.3471 18.3329 11.345 18.3282 11.3429L18.3276 11.3427C18.3018 11.3329 18.2759 11.3231 18.2501 11.3141C18.241 11.3109 18.2319 11.3076 18.223 11.3042C18.2059 11.2983 18.1888 11.2936 18.1712 11.2884C18.1639 11.2864 18.1566 11.284 18.1493 11.2817C18.1247 11.2752 18.1006 11.2695 18.0757 11.2638C18.0563 11.2597 18.0304 11.2546 18.0035 11.2495C17.9883 11.2479 17.9731 11.2457 17.958 11.2433C17.9483 11.2417 17.9383 11.2398 17.9285 11.2386C17.9205 11.2379 17.9174 11.2376 17.9094 11.2367C17.882 11.2336 17.8545 11.2312 17.8264 11.2296C17.6777 11.2215 17.5313 11.2346 17.3915 11.2683C17.3377 11.2806 17.2899 11.2943 17.2381 11.3119C17.1847 11.3301 17.1356 11.35 17.0906 11.3719C17.0831 11.3755 17.0755 11.3791 17.0678 11.3824C17.0539 11.389 17.0406 11.3952 17.0273 11.4027C17.0212 11.4061 17.0151 11.4094 17.0089 11.4126C17.0014 11.417 16.9938 11.4212 16.9863 11.4254C16.9422 11.4494 16.9014 11.4747 16.8614 11.5028C16.8379 11.5191 16.8203 11.5312 16.8037 11.5449C16.7933 11.5535 16.7828 11.5617 16.7719 11.5697C16.7604 11.5785 16.749 11.5891 16.7372 11.5992L16.7093 11.623C16.7073 11.625 16.7008 11.6309 16.6988 11.6327C16.6759 11.653 16.6532 11.6757 16.629 11.702C16.6211 11.7106 16.613 11.719 16.6048 11.7272L16.5933 11.7395C16.589 11.7445 16.5847 11.7494 16.5802 11.7543C16.5661 11.7697 16.5521 11.7867 16.5387 11.8034L12.2289 17.1722C12.221 17.1821 12.2128 17.1918 12.2043 17.2012L11.1617 18.4998C10.6858 19.0856 10.0735 19.5601 9.38863 19.8753L4.68214 22.03C4.6735 22.0339 4.66477 22.0378 4.65614 22.0415L3.6588 22.4986C1.90594 23.301 1.11822 25.3207 1.86511 27.0969L5.36189 35.4098C5.79516 36.439 5.71055 37.6251 5.13561 38.5824L4.98337 38.8374C4.89481 38.9847 4.85063 39.1433 4.85063 39.3106C4.85063 39.686 5.07406 40.0211 5.41998 40.1644C6.36858 40.557 7.44798 40.536 8.38083 40.1073L10.3899 39.1823C10.7864 38.9997 11.2567 39.1732 11.4394 39.5702C11.6221 39.9671 11.4485 40.4369 11.0516 40.6197L9.0422 41.5448C8.34497 41.866 7.58996 42.0269 6.83454 42.0269ZM17.172 11.3243C17.1718 11.3245 17.1715 11.3248 17.1712 11.3249C17.1715 11.3247 17.1719 11.3245 17.172 11.3243ZM17.1739 11.3232C17.1734 11.3234 17.1731 11.3238 17.1726 11.324C17.1729 11.3237 17.1734 11.3234 17.1739 11.3232ZM18.1136 11.2698C18.1141 11.2699 18.1146 11.2702 18.115 11.2703C18.1145 11.2702 18.114 11.27 18.1136 11.2698ZM20.2352 10.1627C20.2345 10.1628 20.2339 10.1631 20.2332 10.1632C20.2339 10.1631 20.2346 10.1629 20.2352 10.1627ZM20.2376 10.1621C20.2371 10.1622 20.2366 10.1623 20.2362 10.1625C20.2366 10.1624 20.2372 10.1623 20.2376 10.1621ZM20.7131 10.0035C20.7127 10.0037 20.7123 10.004 20.7119 10.0042C20.7122 10.004 20.7126 10.0037 20.7131 10.0035ZM20.714 10.0029C20.7136 10.0031 20.7134 10.0033 20.713 10.0035C20.7134 10.0033 20.7137 10.003 20.714 10.0029ZM20.7487 9.98393C20.7481 9.98434 20.7476 9.98454 20.747 9.98495C20.7476 9.98464 20.7481 9.98434 20.7487 9.98393Z" fill="black"/>
<path d="M43.53 32.6722C43.967 32.6722 44.3212 32.318 44.3212 31.881C44.3212 31.4441 43.967 31.0898 43.53 31.0898C43.093 31.0898 42.7388 31.4441 42.7388 31.881C42.7388 32.318 43.093 32.6722 43.53 32.6722Z" fill="white"/>
</g>
<defs>
<clipPath id="clip0_6_823">
<rect width="52" height="52" fill="white"/>
</clipPath>
</defs>
</svg>
