<svg width="48" height="48" viewBox="0 0 48 48" fill="none" xmlns="http://www.w3.org/2000/svg">
<g clip-path="url(#clip0_6_713)">
<path d="M0 45.1875H5.71875V48H8.53125V45.1875H39.4688V48H42.2812V45.1875H48V36.6562H0V45.1875Z" fill="#FC6200"/>
<path d="M32.4375 19.7812C29.0422 19.7812 26.2019 22.2008 25.5486 25.4062H39.3264C38.6731 22.2008 35.8327 19.7812 32.4375 19.7812Z" fill="#FC6200"/>
<path d="M15.5625 19.7812C12.1672 19.7812 9.3269 22.2008 8.67355 25.4062H22.4514C21.7981 22.2008 18.9577 19.7812 15.5625 19.7812Z" fill="#FC6200"/>
<path d="M22.4298 33.8436H25.5701C24.9539 33.2416 24.4423 32.5467 23.9999 31.8018C23.5576 32.5467 23.0461 33.2416 22.4298 33.8436Z" fill="#FC6200"/>
<path d="M5.86088 28.2188H0V33.8438H8.69522C7.18406 32.3677 6.17794 30.4062 5.86088 28.2188Z" fill="#FC6200"/>
<path d="M32.4375 33.8438C35.8327 33.8438 38.6731 31.4242 39.3264 28.2188H25.5486C26.2019 31.4242 29.0422 33.8438 32.4375 33.8438Z" fill="#FC6200"/>
<path d="M15.5625 33.8438C18.9577 33.8438 21.7981 31.4242 22.4514 28.2188H8.67355C9.3269 31.4242 12.1672 33.8438 15.5625 33.8438Z" fill="#FC6200"/>
<path d="M0 11.3438H48V0H0V11.3438ZM33.8438 4.3125H42.2812V7.125H33.8438V4.3125ZM11.3438 4.3125H14.1562V7.125H11.3438V4.3125ZM5.71875 4.3125H8.53125V7.125H5.71875V4.3125Z" fill="#FC6200"/>
<path d="M39.3048 33.8438H48V28.2188H42.1391C41.8221 30.4062 40.8159 32.3677 39.3048 33.8438Z" fill="#FC6200"/>
<path d="M0 25.4062H5.86088C6.55059 20.6484 10.6167 16.9688 15.5625 16.9688C19.1616 16.9688 22.2831 18.9319 24 21.8231C25.7169 18.9319 28.8384 16.9688 32.4375 16.9688C37.3833 16.9688 41.4494 20.6484 42.1391 25.4062H48V14.1562H0V25.4062Z" fill="#FC6200"/>
</g>
<defs>
<clipPath id="clip0_6_713">
<rect width="48" height="48" fill="white"/>
</clipPath>
</defs>
</svg>
