<svg width="61" height="45" viewBox="0 0 61 45" fill="none" xmlns="http://www.w3.org/2000/svg">
<path d="M49.6902 14.5786C49.7214 14.3064 49.7382 14.032 49.7382 13.7564C49.7382 10.4089 47.4808 7.58093 44.3348 6.78429C43.1177 4.40768 40.664 2.87373 37.9318 2.87373C37.7736 2.87373 37.6155 2.87892 37.4581 2.88918C36.1165 1.08048 34.0055 0 31.6889 0C29.871 0 28.1383 0.69649 26.8272 1.89588C25.6376 1.06538 24.215 0.610962 22.7197 0.610962C19.1387 0.610962 16.1604 3.24002 15.6135 6.66927C12.2406 7.26383 9.66995 10.2155 9.66995 13.7563C9.66995 14.0318 9.6867 14.3062 9.71797 14.5785L49.6902 14.5786Z" fill="#FC6200"/>
<path d="M21.9417 31.1195C21.5569 31.4589 21.3362 31.9467 21.3362 32.4579C21.3362 33.4417 22.1366 34.2421 23.1205 34.2421C23.9354 34.2421 24.6461 33.6924 24.8486 32.9052C25.0499 32.1233 25.7549 31.5767 26.5622 31.5767H33.8379C34.6453 31.5767 35.3502 32.1233 35.5515 32.9052C35.7542 33.6923 36.4648 34.2421 37.2796 34.2421C38.2635 34.2421 39.0639 33.4417 39.0639 32.4579C39.0639 31.9467 38.8432 31.459 38.4584 31.1195C38.0776 30.7835 37.8594 30.3003 37.8594 29.7925C37.8594 29.2846 38.0776 28.8014 38.4584 28.4654C38.8432 28.126 39.0639 27.6382 39.0639 27.1271C39.0639 26.1432 38.2635 25.3428 37.2796 25.3428C36.4647 25.3428 35.7541 25.8925 35.5515 26.6797C35.3502 27.4616 34.6453 28.0082 33.8379 28.0082H26.5622C25.7549 28.0082 25.0499 27.4616 24.8486 26.6797C24.646 25.8926 23.9353 25.3428 23.1205 25.3428C22.1366 25.3428 21.3362 26.1432 21.3362 27.1271C21.3362 27.6382 21.5569 28.1259 21.9417 28.4654C22.3226 28.8014 22.5407 29.2846 22.5407 29.7925C22.5407 30.3003 22.3226 30.7836 21.9417 31.1195Z" fill="#FC6200"/>
<path d="M58.5807 41.4608H57.5201L53.8606 19.5951C53.7179 18.7424 52.9798 18.1177 52.1154 18.1177H8.28487C7.42027 18.1177 6.68238 18.7424 6.53964 19.5951L2.88011 41.4608H1.81957C0.866735 41.4608 0.046849 42.1931 0.00202072 43.1448C-0.0458748 44.161 0.763866 44.9999 1.76955 44.9999H58.6307C59.6364 44.9999 60.4461 44.161 60.3982 43.1448C60.3534 42.1929 59.5335 41.4608 58.5807 41.4608ZM17.7971 27.1276C17.7971 24.1923 20.1851 21.8042 23.1204 21.8042C25.0606 21.8042 26.8031 22.851 27.7349 24.4696H32.6653C33.5972 22.851 35.3396 21.8042 37.2798 21.8042C40.2151 21.8042 42.6032 24.1923 42.6032 27.1276C42.6032 28.0729 42.3509 28.9908 41.8869 29.793C42.3511 30.595 42.6032 31.5131 42.6032 32.4584C42.6032 35.3937 40.2151 37.7817 37.2798 37.7817C35.3397 37.7817 33.5972 36.735 32.6653 35.1163H27.7349C26.8031 36.735 25.0607 37.7817 23.1204 37.7817C20.1851 37.7817 17.7971 35.3937 17.7971 32.4584C17.7971 31.5131 18.0493 30.5952 18.5134 29.793C18.0493 28.9908 17.7971 28.0727 17.7971 27.1276Z" fill="#FC6200"/>
</svg>
