<svg width="44" height="46" viewBox="0 0 44 46" fill="none" xmlns="http://www.w3.org/2000/svg">
<path d="M44 23C44 34.4802 35.9545 43.9956 25.4375 45.7206V29.6484H30.5637L31.5391 23H25.4375V18.6857C25.4375 16.8664 26.29 15.0938 29.0228 15.0938H31.7969V9.43359C31.7969 9.43359 29.2789 8.98438 26.8718 8.98438C21.847 8.98438 18.5625 12.1684 18.5625 17.9328V23H12.9766V29.6484H18.5625V45.7206C8.04547 43.9956 0 34.4802 0 23C0 10.2979 9.85016 0 22 0C34.1498 0 44 10.2979 44 23Z" fill="#1877F2"/>
<path d="M30.5637 29.6484L31.5391 23H25.4375V18.6857C25.4375 16.8668 26.2898 15.0938 29.0227 15.0938H31.7969V9.43359C31.7969 9.43359 29.2793 8.98438 26.8722 8.98438C21.8469 8.98438 18.5625 12.1684 18.5625 17.9328V23H12.9766V29.6484H18.5625V45.7205C19.6826 45.9042 20.8306 46 22 46C23.1694 46 24.3174 45.9042 25.4375 45.7205V29.6484H30.5637Z" fill="white"/>
</svg>
