<svg width="44" height="46" viewBox="0 0 44 46" fill="none" xmlns="http://www.w3.org/2000/svg">
<path d="M44 23C44 35.7025 34.1503 46 22 46C9.84974 46 0 35.7025 0 23C0 10.2975 9.84974 0 22 0C34.1503 0 44 10.2975 44 23Z" fill="url(#paint0_linear_6_779)"/>
<path d="M22.0432 9.15955C16.633 9.15955 11.4955 8.65517 9.53312 13.9332C8.72256 16.1132 8.84027 18.9443 8.84027 22.998C8.84027 26.5553 8.7315 29.8986 9.53312 32.0613C11.491 37.3425 16.6702 36.8365 22.0402 36.8365C27.221 36.8365 32.5627 37.4018 34.5488 32.0613C35.3609 29.8595 35.2417 27.0706 35.2417 22.998C35.2417 17.5919 35.5263 14.1019 33.0246 11.4816C30.4915 8.82694 27.066 9.15955 22.0373 9.15955H22.0432ZM20.8601 11.6534C32.1455 11.6346 33.5818 10.3198 32.7891 28.5853C32.5075 35.0454 27.814 34.3365 22.0447 34.3365C11.5253 34.3365 11.2228 34.0211 11.2228 22.9918C11.2228 11.8345 12.0572 11.6596 20.8601 11.6502V11.6534ZM29.0909 13.9504C28.2163 13.9504 27.5071 14.6937 27.5071 15.6103C27.5071 16.527 28.2163 17.2703 29.0909 17.2703C29.9656 17.2703 30.6748 16.527 30.6748 15.6103C30.6748 14.6937 29.9656 13.9504 29.0909 13.9504ZM22.0432 15.8914C18.2988 15.8914 15.2637 19.0739 15.2637 22.998C15.2637 26.9222 18.2988 30.1031 22.0432 30.1031C25.7876 30.1031 28.8212 26.9222 28.8212 22.998C28.8212 19.0739 25.7876 15.8914 22.0432 15.8914ZM22.0432 18.3852C27.8617 18.3852 27.8691 27.6109 22.0432 27.6109C16.2262 27.6109 16.2173 18.3852 22.0432 18.3852Z" fill="white"/>
<defs>
<linearGradient id="paint0_linear_6_779" x1="2.95423" y1="43.0031" x2="45.265" y2="7.9689" gradientUnits="userSpaceOnUse">
<stop stop-color="#FFDD55"/>
<stop offset="0.5" stop-color="#FF543E"/>
<stop offset="1" stop-color="#C837AB"/>
</linearGradient>
</defs>
</svg>
