<svg width="58" height="52" viewBox="0 0 58 52" fill="none" xmlns="http://www.w3.org/2000/svg">
<path d="M37.4673 17.6552C41.3526 17.6552 44.5022 13.7029 44.5022 8.82758C44.5022 3.95224 41.3526 0 37.4673 0C33.5821 0 30.4325 3.95224 30.4325 8.82758C30.4325 13.7029 33.5821 17.6552 37.4673 17.6552Z" fill="#FC6200"/>
<path d="M19.6257 17.6552C23.511 17.6552 26.6606 13.7029 26.6606 8.82758C26.6606 3.95224 23.511 0 19.6257 0C15.7405 0 12.5909 3.95224 12.5909 8.82758C12.5909 13.7029 15.7405 17.6552 19.6257 17.6552Z" fill="#FC6200"/>
<path d="M6.13305 26.5581C9.52024 26.5581 12.2661 23.8122 12.2661 20.425C12.2661 17.0379 9.52024 14.292 6.13305 14.292C2.74586 14.292 0 17.0379 0 20.425C0 23.8122 2.74586 26.5581 6.13305 26.5581Z" fill="#FC6200"/>
<path d="M50.9601 26.5581C54.3473 26.5581 57.0931 23.8122 57.0931 20.425C57.0931 17.0379 54.3473 14.292 50.9601 14.292C47.5729 14.292 44.827 17.0379 44.827 20.425C44.827 23.8122 47.5729 26.5581 50.9601 26.5581Z" fill="#FC6200"/>
<path d="M28.5465 22.6655C22.2018 22.6655 17.4438 24.6626 14.0005 28.7708C10.9504 32.4098 9.29396 37.2002 7.69223 41.7564C5.72363 47.34 10.5663 52.9791 16.4137 51.8558C21.211 50.9332 27.7999 49.3788 37.2172 51.19C40.8464 51.888 41.1836 51.9989 42.1704 51.9989C47.325 51.9987 51.1978 46.8537 49.4006 41.7563C46.1963 32.641 42.7806 22.6655 28.5465 22.6655ZM33.0069 39.0474H30.2192V41.8351C30.2192 42.7589 29.4703 43.5078 28.5465 43.5078C27.6228 43.5078 26.8738 42.7589 26.8738 41.8351V39.0474H24.0861C23.1623 39.0474 22.4134 38.2985 22.4134 37.3747C22.4134 36.451 23.1623 35.7021 24.0861 35.7021H26.8738V32.9143C26.8738 31.9906 27.6228 31.2417 28.5465 31.2417C29.4703 31.2417 30.2192 31.9906 30.2192 32.9143V35.7021H33.0069C33.9307 35.7021 34.6796 36.451 34.6796 37.3747C34.6796 38.2985 33.9307 39.0474 33.0069 39.0474Z" fill="#FC6200"/>
</svg>
