<svg width="26" height="26" viewBox="0 0 26 26" fill="none" xmlns="http://www.w3.org/2000/svg">
<g clip-path="url(#clip0_6_626)">
<path d="M18.5568 14.2626C16.8684 12.224 14.7342 11.1013 12.5474 11.1013C10.3605 11.1013 8.22632 12.224 6.53801 14.2626C5.02042 16.0949 4.11441 18.4042 4.11441 20.4399C4.11441 21.4288 4.41672 22.1821 5.01292 22.6788C5.60137 23.1691 6.37828 23.335 7.24503 23.335C8.16731 23.335 9.19139 23.1471 10.1976 22.9626C11.0768 22.8012 11.9073 22.6489 12.5474 22.6489C13.0999 22.6489 13.8789 22.7935 14.7034 22.9466C16.6305 23.3044 18.8147 23.7098 20.0764 22.6607C20.6763 22.162 20.9804 21.4148 20.9804 20.4399C20.9804 18.4042 20.0744 16.0949 18.5568 14.2626Z" fill="#FC6200"/>
<path d="M18.7294 3.19303C18.1116 2.28222 17.227 1.75989 16.3024 1.75989C15.3777 1.75989 14.4932 2.28227 13.8754 3.19303C13.308 4.02974 12.9954 5.12851 12.9954 6.28699C12.9954 7.44546 13.3079 8.54424 13.8754 9.38094C14.4932 10.2917 15.3778 10.8141 16.3024 10.8141C17.2271 10.8141 18.1116 10.2917 18.7294 9.38094C19.2969 8.54424 19.6094 7.44546 19.6094 6.28699C19.6094 5.12851 19.2969 4.02969 18.7294 3.19303Z" fill="#FC6200"/>
<path d="M11.2194 3.19291C10.6016 2.2821 9.71706 1.75977 8.79237 1.75977C7.86769 1.75977 6.9831 2.28215 6.36539 3.19291C5.79792 4.02961 5.48536 5.12839 5.48536 6.28687C5.48536 7.44534 5.79787 8.54412 6.36539 9.38082C6.98315 10.2916 7.86769 10.814 8.79237 10.814C9.71706 10.814 10.6016 10.2916 11.2194 9.38082C11.7868 8.54412 12.0994 7.44539 12.0994 6.28687C12.0993 5.12839 11.7868 4.02956 11.2194 3.19291Z" fill="#FC6200"/>
<path d="M24.9486 10.2992C24.6996 9.45208 24.1658 8.83652 23.4456 8.56602C22.8661 8.34835 22.2119 8.38526 21.6036 8.66998C20.7652 9.06228 20.08 9.87237 19.7236 10.8925C19.4324 11.7261 19.3961 12.6072 19.6214 13.3736C19.8705 14.2208 20.4043 14.8363 21.1245 15.1068C21.3737 15.2004 21.6367 15.247 21.9039 15.247C22.2581 15.247 22.6198 15.1652 22.9666 15.0029C23.805 14.6106 24.4902 13.8005 24.8465 12.7804V12.7804C25.1377 11.9468 25.174 11.0656 24.9486 10.2992Z" fill="#FC6200"/>
<path d="M5.37121 10.8924C5.01483 9.8723 4.32958 9.06226 3.49126 8.66996C2.88286 8.38524 2.22863 8.34838 1.64915 8.566C0.928948 8.83655 0.395146 9.45211 0.14611 10.2992C-0.0792035 11.0656 -0.0428848 11.9468 0.248302 12.7803V12.7804C0.604726 13.8005 1.28993 14.6105 2.12825 15.0028C2.47507 15.1651 2.83674 15.2469 3.19095 15.2469C3.45817 15.2469 3.72118 15.2004 3.97036 15.1068C4.69066 14.8363 5.22441 14.2207 5.47345 13.3736C5.69866 12.6072 5.66234 11.7261 5.37121 10.8924Z" fill="#FC6200"/>
</g>
<defs>
<clipPath id="clip0_6_626">
<rect width="25.0947" height="25.0947" fill="white"/>
</clipPath>
</defs>
</svg>
