<svg width="44" height="46" viewBox="0 0 44 46" fill="none" xmlns="http://www.w3.org/2000/svg">
<path d="M22 46C34.1503 46 44 35.7026 44 23C44 10.2975 34.1503 0 22 0C9.84974 0 0 10.2975 0 23C0 35.7026 9.84974 46 22 46Z" fill="#CB2027"/>
<path d="M23.7757 30.799C22.1126 30.6645 21.4137 29.8023 20.1093 28.9745C19.3925 32.9068 18.5163 36.6763 15.9214 38.6455C15.1194 32.7022 17.0971 28.2381 18.0155 23.4998C16.45 20.7446 18.2038 15.199 21.5059 16.5655C25.5699 18.2457 17.9873 26.8101 23.0777 27.8798C28.392 28.9966 30.5615 18.2395 27.2657 14.7406C22.5039 9.68905 13.4052 14.6258 14.524 21.8573C14.7966 23.6252 16.5441 24.1619 15.2221 26.6014C12.1746 25.8958 11.2655 23.3829 11.3824 20.0329C11.571 14.5491 16.0955 10.7095 20.6337 10.1782C26.3731 9.5066 31.76 12.3815 32.5035 18.0255C33.34 24.3956 29.9124 31.2942 23.7757 30.799Z" fill="#F1F2F2"/>
</svg>
