<svg width="48" height="48" viewBox="0 0 48 48" fill="none" xmlns="http://www.w3.org/2000/svg">
<g clip-path="url(#clip0_6_707)">
<path d="M0.990469 8.77462C3.37669 9.58031 5.27747 11.4797 6.08503 13.8649C6.26016 14.4419 6.7965 14.8618 7.43081 14.8618C8.06259 14.8618 8.59706 14.445 8.77453 13.8713C9.58022 11.4852 11.4795 9.58453 13.8647 8.77678C14.4418 8.60166 14.8617 8.06531 14.8617 7.431C14.8617 6.79922 14.4449 6.26475 13.8713 6.08728C11.4851 5.28159 9.58444 3.38231 8.77669 0.997125C8.60156 0.419906 8.06522 0 7.43091 0C6.79913 0 6.26466 0.416812 6.08728 0.990469C5.28169 3.3765 3.38231 5.27728 0.997031 6.08503C0.419906 6.26016 0 6.7965 0 7.43091C0 8.06269 0.416906 8.59716 0.990469 8.77462Z" fill="#FC6200"/>
<path d="M47.0095 39.2254C44.6233 38.4197 42.7225 36.5203 41.915 34.1351C41.7398 33.5581 41.2035 33.1382 40.5692 33.1382C39.9374 33.1382 39.4029 33.555 39.2255 34.1287C38.4198 36.5148 36.5205 38.4155 34.1353 39.2232C33.5582 39.3983 33.1383 39.9347 33.1383 40.569C33.1383 41.2008 33.5551 41.7352 34.1287 41.9127C36.5149 42.7184 38.4156 44.6177 39.2233 47.0029C39.3984 47.58 39.9348 47.9999 40.5691 47.9999C41.2009 47.9999 41.7353 47.5831 41.9127 47.0094C42.7183 44.6234 44.6177 42.7226 47.003 41.9149C47.5801 41.7397 48 41.2034 48 40.5691C48 39.9373 47.5831 39.4028 47.0095 39.2254Z" fill="#FC6200"/>
<path d="M28.9638 31.7038C28.9638 31.7038 28.0176 31.3881 26.7033 30.9504C22.1698 29.4393 18.5609 25.8305 17.0498 21.2973C16.6121 19.9826 16.2964 19.0364 16.2964 19.0364C16.1049 18.4624 15.5676 18.0752 14.9624 18.0752C14.3573 18.0752 13.82 18.4625 13.6284 19.0365C13.6284 19.0365 13.3129 19.9827 12.8752 21.2969C11.3641 25.8304 7.75528 29.4393 3.222 30.9504C1.90744 31.3881 0.961219 31.7038 0.961219 31.7038C0.387188 31.8953 0 32.4326 0 33.0378C0 33.6429 0.387281 34.1802 0.961312 34.3718C0.961312 34.3718 1.90753 34.6873 3.22162 35.1249C7.75519 36.6361 11.3641 40.2449 12.8752 44.7781C13.3129 46.0927 13.6284 47.0389 13.6284 47.0389C13.82 47.6129 14.3572 48.0002 14.9624 48.0002H14.9625C15.5677 48.0002 16.105 47.613 16.2965 47.039C16.2965 47.039 16.6122 46.0928 17.0498 44.7785C18.561 40.245 22.1698 36.6361 26.703 35.125C28.0176 34.6873 28.9638 34.3718 28.9638 34.3718C29.5378 34.1802 29.9251 33.643 29.9251 33.0378C29.9251 32.4325 29.5378 31.8953 28.9638 31.7038Z" fill="#FC6200"/>
<path d="M36.0503 23.8992C36.6826 23.8992 37.2173 23.4818 37.3944 22.9075C38.9074 18.4001 42.4951 14.811 47.0017 13.296C47.5794 13.1213 48 12.5846 48 11.9497C48 11.3175 47.5825 10.7828 47.0083 10.6057C42.5009 9.09272 38.9117 5.505 37.3967 0.998437C37.2219 0.420562 36.6853 0 36.0503 0C35.4181 0 34.8833 0.417469 34.7063 0.991688C33.1933 5.49909 29.6056 9.08831 25.099 10.6033C24.5213 10.778 24.1007 11.3147 24.1007 11.9496C24.1007 12.5818 24.5182 13.1166 25.0924 13.2937C29.5995 14.8065 33.1886 18.3939 34.7037 22.9C34.8783 23.4784 35.4151 23.8992 36.0503 23.8992Z" fill="#FC6200"/>
</g>
<defs>
<clipPath id="clip0_6_707">
<rect width="48" height="48" fill="white"/>
</clipPath>
</defs>
</svg>
