<svg width="41" height="51" viewBox="0 0 41 51" fill="none" xmlns="http://www.w3.org/2000/svg">
<path d="M27.1748 25.1613H16.6568C16.1086 25.1613 15.6283 24.7144 15.4838 24.0701C15.3392 23.4257 15.5663 22.7432 16.0381 22.4032C20.6208 19.1031 23.0012 15.2535 23.3152 10.6345C23.4247 9.03147 24.5962 7.75103 25.9261 7.77223C27.2831 7.79866 28.5544 8.46157 29.5066 9.63905C30.4595 10.8176 30.9847 12.3783 30.9852 14.0335C30.9852 14.0337 30.9852 14.0339 30.9852 14.0341V14.532C30.9852 18.5753 30.0025 21.1534 28.1893 24.4963C27.964 24.9116 27.5831 25.1613 27.1748 25.1613Z" fill="#FFC380"/>
<path d="M40.065 26.8405C40.065 24.28 38.3557 22.1968 36.2546 22.1968H16.6568C16.4391 22.1968 16.2253 22.268 16.0379 22.4031C14.6622 23.3944 13.2732 24.2104 12.1571 24.8663C11.7678 25.095 11.4001 25.3111 11.0656 25.5148C10.6537 25.7659 10.3934 26.279 10.3934 26.8405V45.8103C10.3934 46.3717 10.6537 46.8849 11.0656 47.1359C15.9793 50.1296 20.0637 50.4917 24.8267 50.4917C25.5643 50.4917 26.3186 50.483 27.0943 50.4741C27.9522 50.4643 28.8392 50.454 29.7691 50.454H33.6135C35.7144 50.454 37.4238 48.3709 37.4238 45.8103C37.4238 44.9494 37.2306 44.1425 36.8941 43.4505C37.9889 42.6338 38.7209 41.1627 38.7209 39.487C38.7209 38.6261 38.5277 37.8192 38.1913 37.1272C39.286 36.3104 40.018 34.8394 40.018 33.1637C40.018 31.9594 39.6399 30.8607 39.0208 30.0348C39.695 29.1688 40.065 28.0393 40.065 26.8405Z" fill="#FFCF99"/>
<path d="M37.5356 13.9167H34.9413C34.2698 13.9167 33.7253 13.2531 33.7253 12.4347C33.7253 11.6162 34.2698 10.9526 34.9413 10.9526H37.5356C38.2071 10.9526 38.7516 11.6162 38.7516 12.4347C38.7516 13.2531 38.2072 13.9167 37.5356 13.9167Z" fill="#29CCB1"/>
<path d="M19.3757 13.9167H16.7815C16.1099 13.9167 15.5654 13.2531 15.5654 12.4347C15.5654 11.6162 16.1099 10.9526 16.7815 10.9526H19.3757C20.0473 10.9526 20.5918 11.6162 20.5918 12.4347C20.5918 13.2531 20.0475 13.9167 19.3757 13.9167Z" fill="#29CCB1"/>
<path d="M23.2684 5.70252C22.848 5.70252 22.4394 5.43675 22.2142 4.96132L20.917 2.22321C20.5812 1.51445 20.7805 0.607967 21.3621 0.198805C21.9437 -0.210456 22.6875 0.0324379 23.0232 0.741198L24.3203 3.4793C24.6561 4.18806 24.4568 5.09455 23.8753 5.50371C23.6838 5.63852 23.4746 5.70252 23.2684 5.70252Z" fill="#29CCB1"/>
<path d="M31.0488 5.70261C30.8424 5.70261 30.6333 5.63861 30.4419 5.5038C29.8603 5.09454 29.661 4.18815 29.9968 3.47939L31.2939 0.741286C31.6297 0.0325255 32.3735 -0.210565 32.955 0.198892C33.5366 0.608153 33.7359 1.51454 33.4001 2.2233L32.103 4.9614C31.8779 5.43684 31.469 5.70261 31.0488 5.70261Z" fill="#29CCB1"/>
<path d="M7.62058 42.6676V50.4729H5.18848V42.6676C5.18848 41.8495 5.7333 41.1855 6.40453 41.1855C7.07575 41.1855 7.62058 41.8495 7.62058 42.6676Z" fill="#73C3FF"/>
<path d="M37.5356 13.9167H34.9413C34.2698 13.9167 33.7253 13.2531 33.7253 12.4347C33.7253 11.6162 34.2698 10.9526 34.9413 10.9526H37.5356C38.2071 10.9526 38.7516 11.6162 38.7516 12.4347C38.7516 13.2531 38.2072 13.9167 37.5356 13.9167Z" fill="#29CCB1"/>
<path d="M19.3757 13.9167H16.7815C16.1099 13.9167 15.5654 13.2531 15.5654 12.4347C15.5654 11.6162 16.1099 10.9526 16.7815 10.9526H19.3757C20.0473 10.9526 20.5918 11.6162 20.5918 12.4347C20.5918 13.2531 20.0475 13.9167 19.3757 13.9167Z" fill="#29CCB1"/>
<path d="M23.2684 5.70252C22.848 5.70252 22.4394 5.43675 22.2142 4.96132L20.917 2.22321C20.5812 1.51445 20.7805 0.607967 21.3621 0.198805C21.9437 -0.210456 22.6875 0.0324379 23.0232 0.741198L24.3203 3.4793C24.6561 4.18806 24.4568 5.09455 23.8753 5.50371C23.6838 5.63852 23.4746 5.70252 23.2684 5.70252Z" fill="#29CCB1"/>
<path d="M31.0488 5.70261C30.8424 5.70261 30.6333 5.63861 30.4419 5.5038C29.8603 5.09454 29.661 4.18815 29.9968 3.47939L31.2939 0.741286C31.6297 0.0325255 32.3735 -0.210565 32.955 0.198892C33.5366 0.608153 33.7359 1.51454 33.4001 2.2233L32.103 4.9614C31.8779 5.43684 31.469 5.70261 31.0488 5.70261Z" fill="#29CCB1"/>
<path d="M7.62058 42.6676V50.4729H5.18848V42.6676C5.18848 41.8495 5.7333 41.1855 6.40453 41.1855C7.07575 41.1855 7.62058 41.8495 7.62058 42.6676Z" fill="#73C3FF"/>
<path d="M11.593 22.1968H1.21605C0.544827 22.1968 0 22.8608 0 23.6788V48.9719C0 49.7909 0.544827 50.4539 1.21605 50.4726H8.99876C10.4896 50.4539 11.7827 49.4056 12.4078 47.8821C12.6648 47.2586 12.8091 46.5542 12.8091 45.8102V23.6788C12.8091 22.8607 12.2642 22.1968 11.593 22.1968Z" fill="#44A4EC"/>
<path d="M7.62058 42.5689V50.4731H5.18848V42.5689C5.18848 41.7509 5.7333 41.0869 6.40453 41.0869C7.07575 41.0869 7.62058 41.7509 7.62058 42.5689Z" fill="#73C3FF"/>
</svg>
