<svg width="44" height="46" viewBox="0 0 44 46" fill="none" xmlns="http://www.w3.org/2000/svg">
<path d="M22 46C34.1503 46 44 35.7025 44 23C44 10.2975 34.1503 0 22 0C9.84974 0 0 10.2975 0 23C0 35.7025 9.84974 46 22 46Z" fill="#F20000"/>
<path d="M32.4847 17.4679C32.0447 16.0395 30.5887 15.1951 29.2368 14.9984C24.4181 14.4628 19.5587 14.4628 14.74 14.9984C13.3997 15.1951 11.9437 16.0516 11.5037 17.4679C10.8177 21.1221 10.8177 24.8809 11.5037 28.5351C11.9553 29.9605 13.4113 30.8079 14.7632 31.0046C19.582 31.5372 24.4411 31.5372 29.26 31.0046C30.6003 30.8079 32.0563 29.9484 32.4963 28.5351C33.1785 24.8801 33.1746 21.1213 32.4847 17.4679ZM19.3687 27.4063V18.5937L26.2321 23C23.9192 24.4859 21.6729 25.9325 19.3687 27.4063Z" fill="white"/>
</svg>
